<?xml version="1.0" encoding="utf-8" standalone="no"?>
<!DOCTYPE svg PUBLIC "-//W3C//DTD SVG 1.1//EN"
  "http://www.w3.org/Graphics/SVG/1.1/DTD/svg11.dtd">
<svg xmlns:xlink="http://www.w3.org/1999/xlink" width="432pt" height="288pt" viewBox="0 0 432 288" xmlns="http://www.w3.org/2000/svg" version="1.1">
 <metadata>
  <rdf:RDF xmlns:dc="http://purl.org/dc/elements/1.1/" xmlns:cc="http://creativecommons.org/ns#" xmlns:rdf="http://www.w3.org/1999/02/22-rdf-syntax-ns#">
   <cc:Work>
    <dc:type rdf:resource="http://purl.org/dc/dcmitype/StillImage"/>
    <dc:date>2023-10-10T09:47:45.986168</dc:date>
    <dc:format>image/svg+xml</dc:format>
    <dc:creator>
     <cc:Agent>
      <dc:title>Matplotlib v3.5.1, https://matplotlib.org/</dc:title>
     </cc:Agent>
    </dc:creator>
   </cc:Work>
  </rdf:RDF>
 </metadata>
 <defs>
  <style type="text/css">*{stroke-linejoin: round; stroke-linecap: butt}</style>
 </defs>
 <g id="figure_1">
  <g id="patch_1">
   <path d="M 0 288 
L 432 288 
L 432 0 
L 0 0 
L 0 288 
z
" style="fill: none"/>
  </g>
  <g id="axes_1">
   <g id="patch_2">
    <path d="M 305.533622 131.212708 
C 303.766812 120.223816 299.906997 109.675518 294.164116 100.141543 
C 288.421235 90.607568 280.901329 82.26396 272.013413 75.564534 
C 263.125496 68.865109 253.033683 63.93357 242.286874 61.038148 
C 231.540066 58.142726 220.336701 57.336884 209.286139 58.664453 
C 198.235576 59.992022 187.541865 63.428488 177.786643 68.786939 
C 168.03142 74.145391 159.394817 81.326884 152.346584 89.940813 
C 145.29835 98.554742 139.968632 108.44205 136.647316 119.064961 
C 133.326 129.687871 132.074414 140.850232 132.960633 151.944914 
C 133.846852 163.039597 136.854512 173.861738 141.820024 183.822715 
C 146.785536 193.783692 153.617212 202.699574 161.943473 210.085422 
C 170.269733 217.47127 179.936835 223.190704 190.418976 226.932639 
C 200.901117 230.674574 212.004746 232.369916 223.125929 231.926454 
C 234.247112 231.482993 245.180496 228.908916 255.331408 224.344229 
C 265.482319 219.779543 274.663321 213.308534 282.375054 205.283164 
C 290.086786 197.257795 296.186851 187.826254 300.343462 177.501529 
C 304.500074 167.176804 306.63648 156.149541 306.63648 145.01952 
L 219.66048 145.01952 
L 305.533622 131.212708 
z
" style="fill: #004c00; opacity: 0.5; stroke: #004c00; stroke-linejoin: miter"/>
   </g>
   <g id="patch_3">
    <path d="M 306.423748 138.940054 
C 306.333097 137.646332 306.213522 136.354799 306.065112 135.066425 
C 305.916702 133.778051 305.739495 132.493157 305.533622 131.212708 
L 219.66048 145.01952 
L 306.423748 138.940054 
z
" style="fill: #4c4c00; opacity: 0.5; stroke: #4c4c00; stroke-linejoin: miter"/>
   </g>
   <g id="patch_4">
    <path d="M 306.451411 139.348646 
C 306.446961 139.280537 306.442431 139.212432 306.43782 139.144334 
C 306.43321 139.076235 306.428519 139.008141 306.423748 138.940054 
L 219.66048 145.01952 
L 306.451411 139.348646 
z
" style="fill: #4c3200; opacity: 0.5; stroke: #4c3200; stroke-linejoin: miter"/>
   </g>
   <g id="patch_5">
    <path d="M 306.574782 141.744061 
C 306.559727 141.344566 306.541917 140.945178 306.521355 140.545928 
C 306.500792 140.146678 306.477477 139.747575 306.451411 139.348646 
L 219.66048 145.01952 
L 306.574782 141.744061 
z
" style="fill: #4c1e00; opacity: 0.5; stroke: #4c1e00; stroke-linejoin: miter"/>
   </g>
   <g id="patch_6">
    <path d="M 306.63648 145.019513 
C 306.63648 144.473472 306.631338 143.927442 306.621054 143.381497 
C 306.610771 142.835552 306.595346 142.289716 306.574782 141.744061 
L 219.66048 145.01952 
L 306.63648 145.019513 
z
" style="fill: #4c0000; opacity: 0.5; stroke: #4c0000; stroke-linejoin: miter"/>
   </g>
   <g id="patch_7">
    <path d="M 307.273142 129.473188 
C 305.506332 118.484296 301.646517 107.935998 295.903636 98.402023 
C 290.160755 88.868048 282.640849 80.52444 273.752933 73.825014 
C 264.865016 67.125589 254.773203 62.19405 244.026394 59.298628 
C 233.279586 56.403206 222.076221 55.597364 211.025659 56.924933 
C 199.975096 58.252502 189.281385 61.688968 179.526163 67.047419 
C 169.77094 72.405871 161.134337 79.587364 154.086104 88.201293 
C 147.03787 96.815222 141.708152 106.70253 138.386836 117.325441 
C 135.06552 127.948351 133.813934 139.110712 134.700153 150.205394 
C 135.586372 161.300077 138.594032 172.122218 143.559544 182.083195 
C 148.525056 192.044172 155.356732 200.960054 163.682993 208.345902 
C 172.009253 215.73175 181.676355 221.451184 192.158496 225.193119 
C 202.640637 228.935054 213.744266 230.630396 224.865449 230.186934 
C 235.986632 229.743473 246.920016 227.169396 257.070928 222.604709 
C 267.221839 218.040023 276.402841 211.569014 284.114574 203.543644 
C 291.826306 195.518275 297.926371 186.086734 302.082982 175.762009 
C 306.239594 165.437284 308.376 154.410021 308.376 143.28 
L 221.4 143.28 
L 307.273142 129.473188 
z
" style="fill: #00ff00"/>
   </g>
   <g id="patch_8">
    <path d="M 308.163268 137.200534 
C 308.072617 135.906812 307.953042 134.615279 307.804632 133.326905 
C 307.656222 132.038531 307.479015 130.753637 307.273142 129.473188 
L 221.4 143.28 
L 308.163268 137.200534 
z
" style="fill: #ffff00"/>
   </g>
   <g id="patch_9">
    <path d="M 308.190931 137.609126 
C 308.186481 137.541017 308.181951 137.472912 308.17734 137.404814 
C 308.17273 137.336715 308.168039 137.268621 308.163268 137.200534 
L 221.4 143.28 
L 308.190931 137.609126 
z
" style="fill: #ffa500"/>
   </g>
   <g id="patch_10">
    <path d="M 308.314302 140.004541 
C 308.299247 139.605046 308.281437 139.205658 308.260875 138.806408 
C 308.240312 138.407158 308.216997 138.008055 308.190931 137.609126 
L 221.4 143.28 
L 308.314302 140.004541 
z
" style="fill: #ff6400"/>
   </g>
   <g id="patch_11">
    <path d="M 308.376 143.279993 
C 308.376 142.733952 308.370858 142.187922 308.360574 141.641977 
C 308.350291 141.096032 308.334866 140.550196 308.314302 140.004541 
L 221.4 143.28 
L 308.376 143.279993 
z
" style="fill: #ff0000"/>
   </g>
   <g id="patch_12">
    <path d="M 285.804857 132.924891 
C 284.479749 124.683222 281.584888 116.771998 277.277727 109.621517 
C 272.970566 102.471036 267.330637 96.21333 260.664699 91.188761 
C 253.998762 86.164192 246.429902 82.465538 238.369796 80.293971 
C 230.309689 78.122404 221.907166 77.518023 213.619244 78.5137 
C 205.331322 79.509376 197.311039 82.086726 189.994622 86.105565 
C 182.678205 90.124403 176.200753 95.510523 170.914578 101.97097 
C 165.628403 108.431417 161.631114 115.846898 159.140127 123.814081 
C 156.64914 131.781263 155.71045 140.153034 156.375115 148.474046 
C 157.039779 156.795058 159.295524 164.911664 163.019658 172.382396 
C 166.743792 179.853129 171.867549 186.540041 178.112245 192.079427 
C 184.35694 197.618813 191.607266 201.908388 199.468872 204.714839 
C 207.330478 207.52129 215.6582 208.792797 223.999087 208.460201 
C 232.339974 208.127605 240.540012 206.197047 248.153196 202.773532 
C 255.766379 199.350017 262.652131 194.49676 268.43593 188.477733 
C 274.219729 182.458706 278.794778 175.385051 281.912237 167.641507 
C 285.029695 159.897963 286.632 151.627516 286.632 143.28 
L 221.4 143.28 
L 285.804857 132.924891 
z
" style="fill: #ffffff"/>
   </g>
   <g id="patch_13">
    <path d="M 286.632 143.279995 
C 286.632 141.546583 286.562907 139.81386 286.424885 138.085951 
C 286.286864 136.358043 286.080023 134.636323 285.804857 132.924891 
L 221.4 143.28 
L 286.632 143.279995 
z
" style="fill: #d3d3d3"/>
   </g>
   <g id="matplotlib.axis_1"/>
   <g id="matplotlib.axis_2"/>
   <g id="text_1">
    <!-- 0 No damage -->
    <g transform="translate(58.912204 163.820255)rotate(-4.566965)scale(0.1 -0.1)">
     <defs>
      <path id="DejaVuSans-30" d="M 2034 4250 
Q 1547 4250 1301 3770 
Q 1056 3291 1056 2328 
Q 1056 1369 1301 889 
Q 1547 409 2034 409 
Q 2525 409 2770 889 
Q 3016 1369 3016 2328 
Q 3016 3291 2770 3770 
Q 2525 4250 2034 4250 
z
M 2034 4750 
Q 2819 4750 3233 4129 
Q 3647 3509 3647 2328 
Q 3647 1150 3233 529 
Q 2819 -91 2034 -91 
Q 1250 -91 836 529 
Q 422 1150 422 2328 
Q 422 3509 836 4129 
Q 1250 4750 2034 4750 
z
" transform="scale(0.015625)"/>
      <path id="DejaVuSans-20" transform="scale(0.015625)"/>
      <path id="DejaVuSans-4e" d="M 628 4666 
L 1478 4666 
L 3547 763 
L 3547 4666 
L 4159 4666 
L 4159 0 
L 3309 0 
L 1241 3903 
L 1241 0 
L 628 0 
L 628 4666 
z
" transform="scale(0.015625)"/>
      <path id="DejaVuSans-6f" d="M 1959 3097 
Q 1497 3097 1228 2736 
Q 959 2375 959 1747 
Q 959 1119 1226 758 
Q 1494 397 1959 397 
Q 2419 397 2687 759 
Q 2956 1122 2956 1747 
Q 2956 2369 2687 2733 
Q 2419 3097 1959 3097 
z
M 1959 3584 
Q 2709 3584 3137 3096 
Q 3566 2609 3566 1747 
Q 3566 888 3137 398 
Q 2709 -91 1959 -91 
Q 1206 -91 779 398 
Q 353 888 353 1747 
Q 353 2609 779 3096 
Q 1206 3584 1959 3584 
z
" transform="scale(0.015625)"/>
      <path id="DejaVuSans-64" d="M 2906 2969 
L 2906 4863 
L 3481 4863 
L 3481 0 
L 2906 0 
L 2906 525 
Q 2725 213 2448 61 
Q 2172 -91 1784 -91 
Q 1150 -91 751 415 
Q 353 922 353 1747 
Q 353 2572 751 3078 
Q 1150 3584 1784 3584 
Q 2172 3584 2448 3432 
Q 2725 3281 2906 2969 
z
M 947 1747 
Q 947 1113 1208 752 
Q 1469 391 1925 391 
Q 2381 391 2643 752 
Q 2906 1113 2906 1747 
Q 2906 2381 2643 2742 
Q 2381 3103 1925 3103 
Q 1469 3103 1208 2742 
Q 947 2381 947 1747 
z
" transform="scale(0.015625)"/>
      <path id="DejaVuSans-61" d="M 2194 1759 
Q 1497 1759 1228 1600 
Q 959 1441 959 1056 
Q 959 750 1161 570 
Q 1363 391 1709 391 
Q 2188 391 2477 730 
Q 2766 1069 2766 1631 
L 2766 1759 
L 2194 1759 
z
M 3341 1997 
L 3341 0 
L 2766 0 
L 2766 531 
Q 2569 213 2275 61 
Q 1981 -91 1556 -91 
Q 1019 -91 701 211 
Q 384 513 384 1019 
Q 384 1609 779 1909 
Q 1175 2209 1959 2209 
L 2766 2209 
L 2766 2266 
Q 2766 2663 2505 2880 
Q 2244 3097 1772 3097 
Q 1472 3097 1187 3025 
Q 903 2953 641 2809 
L 641 3341 
Q 956 3463 1253 3523 
Q 1550 3584 1831 3584 
Q 2591 3584 2966 3190 
Q 3341 2797 3341 1997 
z
" transform="scale(0.015625)"/>
      <path id="DejaVuSans-6d" d="M 3328 2828 
Q 3544 3216 3844 3400 
Q 4144 3584 4550 3584 
Q 5097 3584 5394 3201 
Q 5691 2819 5691 2113 
L 5691 0 
L 5113 0 
L 5113 2094 
Q 5113 2597 4934 2840 
Q 4756 3084 4391 3084 
Q 3944 3084 3684 2787 
Q 3425 2491 3425 1978 
L 3425 0 
L 2847 0 
L 2847 2094 
Q 2847 2600 2669 2842 
Q 2491 3084 2119 3084 
Q 1678 3084 1418 2786 
Q 1159 2488 1159 1978 
L 1159 0 
L 581 0 
L 581 3500 
L 1159 3500 
L 1159 2956 
Q 1356 3278 1631 3431 
Q 1906 3584 2284 3584 
Q 2666 3584 2933 3390 
Q 3200 3197 3328 2828 
z
" transform="scale(0.015625)"/>
      <path id="DejaVuSans-67" d="M 2906 1791 
Q 2906 2416 2648 2759 
Q 2391 3103 1925 3103 
Q 1463 3103 1205 2759 
Q 947 2416 947 1791 
Q 947 1169 1205 825 
Q 1463 481 1925 481 
Q 2391 481 2648 825 
Q 2906 1169 2906 1791 
z
M 3481 434 
Q 3481 -459 3084 -895 
Q 2688 -1331 1869 -1331 
Q 1566 -1331 1297 -1286 
Q 1028 -1241 775 -1147 
L 775 -588 
Q 1028 -725 1275 -790 
Q 1522 -856 1778 -856 
Q 2344 -856 2625 -561 
Q 2906 -266 2906 331 
L 2906 616 
Q 2728 306 2450 153 
Q 2172 0 1784 0 
Q 1141 0 747 490 
Q 353 981 353 1791 
Q 353 2603 747 3093 
Q 1141 3584 1784 3584 
Q 2172 3584 2450 3431 
Q 2728 3278 2906 2969 
L 2906 3500 
L 3481 3500 
L 3481 434 
z
" transform="scale(0.015625)"/>
      <path id="DejaVuSans-65" d="M 3597 1894 
L 3597 1613 
L 953 1613 
Q 991 1019 1311 708 
Q 1631 397 2203 397 
Q 2534 397 2845 478 
Q 3156 559 3463 722 
L 3463 178 
Q 3153 47 2828 -22 
Q 2503 -91 2169 -91 
Q 1331 -91 842 396 
Q 353 884 353 1716 
Q 353 2575 817 3079 
Q 1281 3584 2069 3584 
Q 2775 3584 3186 3129 
Q 3597 2675 3597 1894 
z
M 3022 2063 
Q 3016 2534 2758 2815 
Q 2500 3097 2075 3097 
Q 1594 3097 1305 2825 
Q 1016 2553 972 2059 
L 3022 2063 
z
" transform="scale(0.015625)"/>
     </defs>
     <use xlink:href="#DejaVuSans-30"/>
     <use xlink:href="#DejaVuSans-20" x="63.623047"/>
     <use xlink:href="#DejaVuSans-4e" x="95.410156"/>
     <use xlink:href="#DejaVuSans-6f" x="170.214844"/>
     <use xlink:href="#DejaVuSans-20" x="231.396484"/>
     <use xlink:href="#DejaVuSans-64" x="263.183594"/>
     <use xlink:href="#DejaVuSans-61" x="326.660156"/>
     <use xlink:href="#DejaVuSans-6d" x="387.939453"/>
     <use xlink:href="#DejaVuSans-61" x="485.351562"/>
     <use xlink:href="#DejaVuSans-67" x="546.630859"/>
     <use xlink:href="#DejaVuSans-65" x="610.107422"/>
    </g>
   </g>
   <g id="text_2">
    <!-- 97% -->
    <g transform="translate(136.591849 151.92596)scale(0.1 -0.1)">
     <defs>
      <path id="DejaVuSans-39" d="M 703 97 
L 703 672 
Q 941 559 1184 500 
Q 1428 441 1663 441 
Q 2288 441 2617 861 
Q 2947 1281 2994 2138 
Q 2813 1869 2534 1725 
Q 2256 1581 1919 1581 
Q 1219 1581 811 2004 
Q 403 2428 403 3163 
Q 403 3881 828 4315 
Q 1253 4750 1959 4750 
Q 2769 4750 3195 4129 
Q 3622 3509 3622 2328 
Q 3622 1225 3098 567 
Q 2575 -91 1691 -91 
Q 1453 -91 1209 -44 
Q 966 3 703 97 
z
M 1959 2075 
Q 2384 2075 2632 2365 
Q 2881 2656 2881 3163 
Q 2881 3666 2632 3958 
Q 2384 4250 1959 4250 
Q 1534 4250 1286 3958 
Q 1038 3666 1038 3163 
Q 1038 2656 1286 2365 
Q 1534 2075 1959 2075 
z
" transform="scale(0.015625)"/>
      <path id="DejaVuSans-37" d="M 525 4666 
L 3525 4666 
L 3525 4397 
L 1831 0 
L 1172 0 
L 2766 4134 
L 525 4134 
L 525 4666 
z
" transform="scale(0.015625)"/>
      <path id="DejaVuSans-25" d="M 4653 2053 
Q 4381 2053 4226 1822 
Q 4072 1591 4072 1178 
Q 4072 772 4226 539 
Q 4381 306 4653 306 
Q 4919 306 5073 539 
Q 5228 772 5228 1178 
Q 5228 1588 5073 1820 
Q 4919 2053 4653 2053 
z
M 4653 2450 
Q 5147 2450 5437 2106 
Q 5728 1763 5728 1178 
Q 5728 594 5436 251 
Q 5144 -91 4653 -91 
Q 4153 -91 3862 251 
Q 3572 594 3572 1178 
Q 3572 1766 3864 2108 
Q 4156 2450 4653 2450 
z
M 1428 4353 
Q 1159 4353 1004 4120 
Q 850 3888 850 3481 
Q 850 3069 1003 2837 
Q 1156 2606 1428 2606 
Q 1700 2606 1854 2837 
Q 2009 3069 2009 3481 
Q 2009 3884 1853 4118 
Q 1697 4353 1428 4353 
z
M 4250 4750 
L 4750 4750 
L 1831 -91 
L 1331 -91 
L 4250 4750 
z
M 1428 4750 
Q 1922 4750 2215 4408 
Q 2509 4066 2509 3481 
Q 2509 2891 2217 2550 
Q 1925 2209 1428 2209 
Q 931 2209 642 2551 
Q 353 2894 353 3481 
Q 353 4063 643 4406 
Q 934 4750 1428 4750 
z
" transform="scale(0.015625)"/>
     </defs>
     <use xlink:href="#DejaVuSans-39"/>
     <use xlink:href="#DejaVuSans-37" x="63.623047"/>
     <use xlink:href="#DejaVuSans-25" x="127.246094"/>
    </g>
   </g>
   <g id="text_3">
    <!-- 1 Light damage -->
    <g transform="translate(317.314622 130.26557)rotate(-6.571035)scale(0.1 -0.1)">
     <defs>
      <path id="DejaVuSans-31" d="M 794 531 
L 1825 531 
L 1825 4091 
L 703 3866 
L 703 4441 
L 1819 4666 
L 2450 4666 
L 2450 531 
L 3481 531 
L 3481 0 
L 794 0 
L 794 531 
z
" transform="scale(0.015625)"/>
      <path id="DejaVuSans-4c" d="M 628 4666 
L 1259 4666 
L 1259 531 
L 3531 531 
L 3531 0 
L 628 0 
L 628 4666 
z
" transform="scale(0.015625)"/>
      <path id="DejaVuSans-69" d="M 603 3500 
L 1178 3500 
L 1178 0 
L 603 0 
L 603 3500 
z
M 603 4863 
L 1178 4863 
L 1178 4134 
L 603 4134 
L 603 4863 
z
" transform="scale(0.015625)"/>
      <path id="DejaVuSans-68" d="M 3513 2113 
L 3513 0 
L 2938 0 
L 2938 2094 
Q 2938 2591 2744 2837 
Q 2550 3084 2163 3084 
Q 1697 3084 1428 2787 
Q 1159 2491 1159 1978 
L 1159 0 
L 581 0 
L 581 4863 
L 1159 4863 
L 1159 2956 
Q 1366 3272 1645 3428 
Q 1925 3584 2291 3584 
Q 2894 3584 3203 3211 
Q 3513 2838 3513 2113 
z
" transform="scale(0.015625)"/>
      <path id="DejaVuSans-74" d="M 1172 4494 
L 1172 3500 
L 2356 3500 
L 2356 3053 
L 1172 3053 
L 1172 1153 
Q 1172 725 1289 603 
Q 1406 481 1766 481 
L 2356 481 
L 2356 0 
L 1766 0 
Q 1100 0 847 248 
Q 594 497 594 1153 
L 594 3053 
L 172 3053 
L 172 3500 
L 594 3500 
L 594 4494 
L 1172 4494 
z
" transform="scale(0.015625)"/>
     </defs>
     <use xlink:href="#DejaVuSans-31"/>
     <use xlink:href="#DejaVuSans-20" x="63.623047"/>
     <use xlink:href="#DejaVuSans-4c" x="95.410156"/>
     <use xlink:href="#DejaVuSans-69" x="151.123047"/>
     <use xlink:href="#DejaVuSans-67" x="178.90625"/>
     <use xlink:href="#DejaVuSans-68" x="242.382812"/>
     <use xlink:href="#DejaVuSans-74" x="305.761719"/>
     <use xlink:href="#DejaVuSans-20" x="344.970703"/>
     <use xlink:href="#DejaVuSans-64" x="376.757812"/>
     <use xlink:href="#DejaVuSans-61" x="440.234375"/>
     <use xlink:href="#DejaVuSans-6d" x="501.513672"/>
     <use xlink:href="#DejaVuSans-61" x="598.925781"/>
     <use xlink:href="#DejaVuSans-67" x="660.205078"/>
     <use xlink:href="#DejaVuSans-65" x="723.681641"/>
    </g>
   </g>
   <g id="text_4">
    <!-- 1% -->
    <g transform="translate(286.911906 137.579244)scale(0.1 -0.1)">
     <use xlink:href="#DejaVuSans-31"/>
     <use xlink:href="#DejaVuSans-25" x="63.623047"/>
    </g>
   </g>
   <g id="text_5">
    <!-- 2 Medium damage -->
    <g transform="translate(317.368345 134.742358)rotate(-3.873251)scale(0.1 -0.1)">
     <defs>
      <path id="DejaVuSans-32" d="M 1228 531 
L 3431 531 
L 3431 0 
L 469 0 
L 469 531 
Q 828 903 1448 1529 
Q 2069 2156 2228 2338 
Q 2531 2678 2651 2914 
Q 2772 3150 2772 3378 
Q 2772 3750 2511 3984 
Q 2250 4219 1831 4219 
Q 1534 4219 1204 4116 
Q 875 4013 500 3803 
L 500 4441 
Q 881 4594 1212 4672 
Q 1544 4750 1819 4750 
Q 2544 4750 2975 4387 
Q 3406 4025 3406 3419 
Q 3406 3131 3298 2873 
Q 3191 2616 2906 2266 
Q 2828 2175 2409 1742 
Q 1991 1309 1228 531 
z
" transform="scale(0.015625)"/>
      <path id="DejaVuSans-4d" d="M 628 4666 
L 1569 4666 
L 2759 1491 
L 3956 4666 
L 4897 4666 
L 4897 0 
L 4281 0 
L 4281 4097 
L 3078 897 
L 2444 897 
L 1241 4097 
L 1241 0 
L 628 0 
L 628 4666 
z
" transform="scale(0.015625)"/>
      <path id="DejaVuSans-75" d="M 544 1381 
L 544 3500 
L 1119 3500 
L 1119 1403 
Q 1119 906 1312 657 
Q 1506 409 1894 409 
Q 2359 409 2629 706 
Q 2900 1003 2900 1516 
L 2900 3500 
L 3475 3500 
L 3475 0 
L 2900 0 
L 2900 538 
Q 2691 219 2414 64 
Q 2138 -91 1772 -91 
Q 1169 -91 856 284 
Q 544 659 544 1381 
z
M 1991 3584 
L 1991 3584 
z
" transform="scale(0.015625)"/>
     </defs>
     <use xlink:href="#DejaVuSans-32"/>
     <use xlink:href="#DejaVuSans-20" x="63.623047"/>
     <use xlink:href="#DejaVuSans-4d" x="95.410156"/>
     <use xlink:href="#DejaVuSans-65" x="181.689453"/>
     <use xlink:href="#DejaVuSans-64" x="243.212891"/>
     <use xlink:href="#DejaVuSans-69" x="306.689453"/>
     <use xlink:href="#DejaVuSans-75" x="334.472656"/>
     <use xlink:href="#DejaVuSans-6d" x="397.851562"/>
     <use xlink:href="#DejaVuSans-20" x="495.263672"/>
     <use xlink:href="#DejaVuSans-64" x="527.050781"/>
     <use xlink:href="#DejaVuSans-61" x="590.527344"/>
     <use xlink:href="#DejaVuSans-6d" x="651.806641"/>
     <use xlink:href="#DejaVuSans-61" x="749.21875"/>
     <use xlink:href="#DejaVuSans-67" x="810.498047"/>
     <use xlink:href="#DejaVuSans-65" x="873.974609"/>
    </g>
   </g>
   <g id="text_6">
    <!-- 0% -->
    <g transform="translate(287.228708 141.045467)scale(0.1 -0.1)">
     <use xlink:href="#DejaVuSans-30"/>
     <use xlink:href="#DejaVuSans-25" x="63.623047"/>
    </g>
   </g>
   <g id="text_7">
    <!-- 3 High damage -->
    <g transform="translate(317.337786 136.282114)rotate(-2.948297)scale(0.1 -0.1)">
     <defs>
      <path id="DejaVuSans-33" d="M 2597 2516 
Q 3050 2419 3304 2112 
Q 3559 1806 3559 1356 
Q 3559 666 3084 287 
Q 2609 -91 1734 -91 
Q 1441 -91 1130 -33 
Q 819 25 488 141 
L 488 750 
Q 750 597 1062 519 
Q 1375 441 1716 441 
Q 2309 441 2620 675 
Q 2931 909 2931 1356 
Q 2931 1769 2642 2001 
Q 2353 2234 1838 2234 
L 1294 2234 
L 1294 2753 
L 1863 2753 
Q 2328 2753 2575 2939 
Q 2822 3125 2822 3475 
Q 2822 3834 2567 4026 
Q 2313 4219 1838 4219 
Q 1578 4219 1281 4162 
Q 984 4106 628 3988 
L 628 4550 
Q 988 4650 1302 4700 
Q 1616 4750 1894 4750 
Q 2613 4750 3031 4423 
Q 3450 4097 3450 3541 
Q 3450 3153 3228 2886 
Q 3006 2619 2597 2516 
z
" transform="scale(0.015625)"/>
      <path id="DejaVuSans-48" d="M 628 4666 
L 1259 4666 
L 1259 2753 
L 3553 2753 
L 3553 4666 
L 4184 4666 
L 4184 0 
L 3553 0 
L 3553 2222 
L 1259 2222 
L 1259 0 
L 628 0 
L 628 4666 
z
" transform="scale(0.015625)"/>
     </defs>
     <use xlink:href="#DejaVuSans-33"/>
     <use xlink:href="#DejaVuSans-20" x="63.623047"/>
     <use xlink:href="#DejaVuSans-48" x="95.410156"/>
     <use xlink:href="#DejaVuSans-69" x="170.605469"/>
     <use xlink:href="#DejaVuSans-67" x="198.388672"/>
     <use xlink:href="#DejaVuSans-68" x="261.865234"/>
     <use xlink:href="#DejaVuSans-20" x="325.244141"/>
     <use xlink:href="#DejaVuSans-64" x="357.03125"/>
     <use xlink:href="#DejaVuSans-61" x="420.507812"/>
     <use xlink:href="#DejaVuSans-6d" x="481.787109"/>
     <use xlink:href="#DejaVuSans-61" x="579.199219"/>
     <use xlink:href="#DejaVuSans-67" x="640.478516"/>
     <use xlink:href="#DejaVuSans-65" x="703.955078"/>
    </g>
   </g>
   <g id="text_8">
    <!-- 0% -->
    <g transform="translate(287.299712 142.236822)scale(0.1 -0.1)">
     <use xlink:href="#DejaVuSans-30"/>
     <use xlink:href="#DejaVuSans-25" x="63.623047"/>
    </g>
   </g>
   <g id="text_9">
    <!-- 4 Moribund or dead -->
    <g transform="translate(317.199733 139.398856)rotate(-1.079118)scale(0.1 -0.1)">
     <defs>
      <path id="DejaVuSans-34" d="M 2419 4116 
L 825 1625 
L 2419 1625 
L 2419 4116 
z
M 2253 4666 
L 3047 4666 
L 3047 1625 
L 3713 1625 
L 3713 1100 
L 3047 1100 
L 3047 0 
L 2419 0 
L 2419 1100 
L 313 1100 
L 313 1709 
L 2253 4666 
z
" transform="scale(0.015625)"/>
      <path id="DejaVuSans-72" d="M 2631 2963 
Q 2534 3019 2420 3045 
Q 2306 3072 2169 3072 
Q 1681 3072 1420 2755 
Q 1159 2438 1159 1844 
L 1159 0 
L 581 0 
L 581 3500 
L 1159 3500 
L 1159 2956 
Q 1341 3275 1631 3429 
Q 1922 3584 2338 3584 
Q 2397 3584 2469 3576 
Q 2541 3569 2628 3553 
L 2631 2963 
z
" transform="scale(0.015625)"/>
      <path id="DejaVuSans-62" d="M 3116 1747 
Q 3116 2381 2855 2742 
Q 2594 3103 2138 3103 
Q 1681 3103 1420 2742 
Q 1159 2381 1159 1747 
Q 1159 1113 1420 752 
Q 1681 391 2138 391 
Q 2594 391 2855 752 
Q 3116 1113 3116 1747 
z
M 1159 2969 
Q 1341 3281 1617 3432 
Q 1894 3584 2278 3584 
Q 2916 3584 3314 3078 
Q 3713 2572 3713 1747 
Q 3713 922 3314 415 
Q 2916 -91 2278 -91 
Q 1894 -91 1617 61 
Q 1341 213 1159 525 
L 1159 0 
L 581 0 
L 581 4863 
L 1159 4863 
L 1159 2969 
z
" transform="scale(0.015625)"/>
      <path id="DejaVuSans-6e" d="M 3513 2113 
L 3513 0 
L 2938 0 
L 2938 2094 
Q 2938 2591 2744 2837 
Q 2550 3084 2163 3084 
Q 1697 3084 1428 2787 
Q 1159 2491 1159 1978 
L 1159 0 
L 581 0 
L 581 3500 
L 1159 3500 
L 1159 2956 
Q 1366 3272 1645 3428 
Q 1925 3584 2291 3584 
Q 2894 3584 3203 3211 
Q 3513 2838 3513 2113 
z
" transform="scale(0.015625)"/>
     </defs>
     <use xlink:href="#DejaVuSans-34"/>
     <use xlink:href="#DejaVuSans-20" x="63.623047"/>
     <use xlink:href="#DejaVuSans-4d" x="95.410156"/>
     <use xlink:href="#DejaVuSans-6f" x="181.689453"/>
     <use xlink:href="#DejaVuSans-72" x="242.871094"/>
     <use xlink:href="#DejaVuSans-69" x="283.984375"/>
     <use xlink:href="#DejaVuSans-62" x="311.767578"/>
     <use xlink:href="#DejaVuSans-75" x="375.244141"/>
     <use xlink:href="#DejaVuSans-6e" x="438.623047"/>
     <use xlink:href="#DejaVuSans-64" x="502.001953"/>
     <use xlink:href="#DejaVuSans-20" x="565.478516"/>
     <use xlink:href="#DejaVuSans-6f" x="597.265625"/>
     <use xlink:href="#DejaVuSans-72" x="658.447266"/>
     <use xlink:href="#DejaVuSans-20" x="699.560547"/>
     <use xlink:href="#DejaVuSans-64" x="731.347656"/>
     <use xlink:href="#DejaVuSans-65" x="794.824219"/>
     <use xlink:href="#DejaVuSans-61" x="856.347656"/>
     <use xlink:href="#DejaVuSans-64" x="917.626953"/>
    </g>
   </g>
   <g id="text_10">
    <!-- 1% -->
    <g transform="translate(287.384457 144.647055)scale(0.1 -0.1)">
     <use xlink:href="#DejaVuSans-31"/>
     <use xlink:href="#DejaVuSans-25" x="63.623047"/>
    </g>
   </g>
   <g id="text_11">
    <!-- 3% -->
    <g transform="translate(199.190313 119.652375)scale(0.28 -0.28)">
     <use xlink:href="#DejaVuSans-33"/>
     <use xlink:href="#DejaVuSans-25" x="63.623047"/>
    </g>
    <!-- damaged -->
    <g transform="translate(155.326562 151.00625)scale(0.28 -0.28)">
     <use xlink:href="#DejaVuSans-64"/>
     <use xlink:href="#DejaVuSans-61" x="63.476562"/>
     <use xlink:href="#DejaVuSans-6d" x="124.755859"/>
     <use xlink:href="#DejaVuSans-61" x="222.167969"/>
     <use xlink:href="#DejaVuSans-67" x="283.447266"/>
     <use xlink:href="#DejaVuSans-65" x="346.923828"/>
     <use xlink:href="#DejaVuSans-64" x="408.447266"/>
    </g>
    <!-- trees -->
    <g transform="translate(185.949375 182.360125)scale(0.28 -0.28)">
     <defs>
      <path id="DejaVuSans-73" d="M 2834 3397 
L 2834 2853 
Q 2591 2978 2328 3040 
Q 2066 3103 1784 3103 
Q 1356 3103 1142 2972 
Q 928 2841 928 2578 
Q 928 2378 1081 2264 
Q 1234 2150 1697 2047 
L 1894 2003 
Q 2506 1872 2764 1633 
Q 3022 1394 3022 966 
Q 3022 478 2636 193 
Q 2250 -91 1575 -91 
Q 1294 -91 989 -36 
Q 684 19 347 128 
L 347 722 
Q 666 556 975 473 
Q 1284 391 1588 391 
Q 1994 391 2212 530 
Q 2431 669 2431 922 
Q 2431 1156 2273 1281 
Q 2116 1406 1581 1522 
L 1381 1569 
Q 847 1681 609 1914 
Q 372 2147 372 2553 
Q 372 3047 722 3315 
Q 1072 3584 1716 3584 
Q 2034 3584 2315 3537 
Q 2597 3491 2834 3397 
z
" transform="scale(0.015625)"/>
     </defs>
     <use xlink:href="#DejaVuSans-74"/>
     <use xlink:href="#DejaVuSans-72" x="39.208984"/>
     <use xlink:href="#DejaVuSans-65" x="78.072266"/>
     <use xlink:href="#DejaVuSans-65" x="139.595703"/>
     <use xlink:href="#DejaVuSans-73" x="201.119141"/>
    </g>
   </g>
  </g>
 </g>
</svg>
